gait_subject_b_1ms
version=1
nRows=25
nColumns=17
InDegrees=yes
endheader
time	ankle_angle_l	ankle_angle_r	hip_adduction_l	hip_adduction_r	hip_flexion_l	hip_flexion_r	hip_rotation_l	hip_rotation_r	knee_angle_l	knee_angle_r	lumbar_bending	lumbar_extemsion	lumbar_rotation
5.48000000	-14.95585837	-2.34447434	6.64911931	4.39865125	0.10097384	23.65356491	4.81568708	-1.89232281	-44.21451726	-23.22230651	-1.15596508	1.31354761	-5.87900480	0.00000000	0.00000000	0.00000000
5.48200000	-15.34245216	-2.22824394	6.82707802	4.54783518	0.42355907	23.47383482	4.85949153	-1.90178919	-44.84162368	-23.18950510	-1.01250193	1.30173697	-5.85288238	0.00000000	0.00000000	0.00000000
5.48400000	-15.72143420	-2.11112693	7.00064834	4.69535478	0.75278665	23.29674953	4.89973798	-1.90787859	-45.46617246	-23.15398184	-0.87113945	1.29495153	-5.82707183	0.00000000	0.00000000	0.00000000
5.48600000	-16.09181822	-1.99325505	7.17027834	4.84063522	1.09219209	23.12103126	4.93636128	-1.91084215	-46.08560747	-23.11709670	-0.73219075	1.29332639	-5.80156762	0.00000000	0.00000000	0.00000000
5.48800000	-16.45320730	-1.87453263	7.33501890	4.98321574	1.43674685	22.94911347	4.96960280	-1.91071982	-46.70194783	-23.07823683	-0.59599842	1.29683460	-5.77631359	0.00000000	0.00000000	0.00000000
5.49000000	-16.80457597	-1.75500318	7.49512239	5.12238352	1.78599183	22.78128857	4.99945682	-1.90779258	-47.31482738	-23.03787998	-0.46287482	1.30549513	-5.75127064	0.00000000	0.00000000	0.00000000
5.49200000	-17.14465531	-1.63475455	7.64933083	5.25826194	2.14034630	22.61758633	5.02646912	-1.90212054	-47.92343503	-22.99660845	-0.33316501	1.31933408	-5.72636907	0.00000000	0.00000000	0.00000000
5.49400000	-17.47199502	-1.51386466	7.79747298	5.39041359	2.49982428	22.45794726	5.05086156	-1.89398333	-48.52721420	-22.95501078	-0.20718196	1.33833049	-5.70154295	0.00000000	0.00000000	0.00000000
5.49600000	-17.78507336	-1.39237490	7.93894092	5.51862760	2.86337175	22.30293951	5.07300750	-1.88358583	-49.12620955	-22.91330489	-0.08523694	1.36242884	-5.67670635	0.00000000	0.00000000	0.00000000
5.49800000	-18.08206333	-1.27036579	8.07364610	5.64251458	3.23147205	22.15237066	5.09317681	-1.87125776	-49.71968444	-22.87206002	0.03237928	1.39156936	-5.65177431	0.00000000	0.00000000	0.00000000
5.50000000	-18.36108657	-1.14790870	8.20141743	5.76174642	3.60378046	22.00610829	5.11167151	-1.85732917	-50.30737675	-22.83176262	0.14538837	1.42564515	-5.62665045	0.00000000	0.00000000	0.00000000
5.50200000	-18.62013440	-1.02506055	8.32184861	5.87633338	3.98039584	21.86426589	5.12890384	-1.84203788	-50.88882421	-22.79271857	0.25352819	1.46454856	-5.60122609	0.00000000	0.00000000	0.00000000
5.50400000	-18.85718839	-0.90184837	8.43501990	5.98578523	4.36078138	21.72705506	5.14512520	-1.82578496	-51.46393896	-22.75512652	0.35655845	1.50812586	-5.57539236	0.00000000	0.00000000	0.00000000
5.50600000	-19.07018964	-0.77831804	8.54061604	6.08999184	4.74476090	21.59440973	5.16073765	-1.80888503	-52.03246649	-22.71927133	0.45425227	1.55620718	-5.54903038	0.00000000	0.00000000	0.00000000
5.50800000	-19.25710320	-0.65450586	8.63862033	6.18873645	5.13211962	21.46621286	5.17605039	-1.79169802	-52.59420002	-22.68540277	0.54641299	1.60859530	-5.52202151	0.00000000	0.00000000	0.00000000
5.51000000	-19.41594830	-0.53044571	8.72902187	6.28187197	5.52282982	21.34226991	5.19137743	-1.77457415	-53.14885236	-22.65374801	0.63287007	1.66507631	-5.49424549	0.00000000	0.00000000	0.00000000
5.51200000	-19.54489105	-0.40615988	8.81170626	6.36932511	5.91656017	21.22246551	5.20705723	-1.75784150	-53.69631005	-22.62442864	0.71347705	1.72540996	-5.46557953	0.00000000	0.00000000	0.00000000
5.51400000	-19.64226813	-0.28165671	8.88687077	6.45078869	6.31279294	21.10668051	5.22331385	-1.74189464	-54.23656688	-22.59750384	0.78812125	1.78932886	-5.43590684	0.00000000	0.00000000	0.00000000
5.51600000	-19.70658865	-0.15696695	8.95436226	6.52641428	6.71140183	20.99455982	5.24048828	-1.72700535	-54.76940241	-22.57309252	0.85671809	1.85655944	-5.40510924	0.00000000	0.00000000	0.00000000
5.51800000	-19.73663120	-0.03209301	9.01410352	6.59620390	7.11192425	20.88605910	5.25887517	-1.71346747	-55.29477120	-22.55109091	0.91921442	1.92681021	-5.37307383	0.00000000	0.00000000	0.00000000
5.52000000	-19.73141129	0.09293415	9.06607634	6.66019459	7.51426903	20.78065999	5.27874347	-1.70157607	-55.81241358	-22.53158368	0.97559014	1.99977483	-5.33969679	0.00000000	0.00000000	0.00000000
5.52200000	-19.69028357	0.21810740	9.11046379	6.71848140	7.91789772	20.67824386	5.30026856	-1.69158194	-56.32229953	-22.51439171	1.02587170	2.07513245	-5.30488334	0.00000000	0.00000000	0.00000000
5.52400000	-19.61289631	0.34339324	9.14728897	6.77128278	8.32263543	20.57834969	5.32366887	-1.68370220	-56.82418199	-22.49946392	1.07011458	2.15255641	-5.26854788	0.00000000	0.00000000	0.00000000
5.52600000	-19.49926119	0.46877657	9.17661887	6.81885728	8.72805196	20.48087834	5.34912325	-1.67811248	-57.31793560	-22.48651443	1.10841346	2.23171495	-5.23061519	0.00000000	0.00000000	0.00000000
5.52800000	-19.34970148	0.59420506	9.19866187	6.86132068	9.13407100	20.38513796	5.37675132	-1.67503183	-57.80322111	-22.47552347	1.14089560	2.31226344	-5.19102717	0.00000000	0.00000000	0.00000000
